HIERARCHY
ROOT Hips
{
	OFFSET -0.001795 -0.223333 0.028219
	CHANNELS 6 Xposition Yposition Zposition Zrotation Yrotation Xrotation 
	JOINT LeftUpLeg
	{
		OFFSET 0.069520 -0.091406 -0.006815
		CHANNELS 3 Zrotation Yrotation Xrotation
		JOINT LeftLeg
		{
			OFFSET 0.034277 -0.375199 -0.004496
			CHANNELS 3 Zrotation Yrotation Xrotation
			JOINT LeftFoot
			{
				OFFSET -0.013596 -0.397961 -0.043693
				CHANNELS 3 Zrotation Yrotation Xrotation
				JOINT LeftToe
				{
					OFFSET 0.026358 -0.055791 0.119288
					CHANNELS 3 Zrotation Yrotation Xrotation
					End Site
					{
						OFFSET 0.000000 0.000000 0.000000
					}
				}
			}
		}
	}
	JOINT RightUpLeg
	{
		OFFSET -0.067670 -0.090522 -0.004320
		CHANNELS 3 Zrotation Yrotation Xrotation
		JOINT RightLeg
		{
			OFFSET -0.038290 -0.382569 -0.008850
			CHANNELS 3 Zrotation Yrotation Xrotation
			JOINT RightFoot
			{
				OFFSET 0.015774 -0.398415 -0.042312
				CHANNELS 3 Zrotation Yrotation Xrotation
				JOINT RightToe
				{
					OFFSET -0.025372 -0.048144 0.123348
					CHANNELS 3 Zrotation Yrotation Xrotation
					End Site
					{
						OFFSET 0.000000 0.000000 0.000000
					}
				}
			}
		}
	}
	JOINT Spine
	{
		OFFSET -0.002533 0.108963 -0.026696
		CHANNELS 3 Zrotation Yrotation Xrotation
		JOINT Spine1
		{
			OFFSET 0.005487 0.135180 0.001092
			CHANNELS 3 Zrotation Yrotation Xrotation
			JOINT Spine2
			{
				OFFSET 0.001457 0.052922 0.025425
				CHANNELS 3 Zrotation Yrotation Xrotation
				JOINT Neck
				{
					OFFSET -0.002778 0.213870 -0.042857
					CHANNELS 3 Zrotation Yrotation Xrotation
					JOINT Head
					{
						OFFSET 0.005152 0.064970 0.051349
						CHANNELS 3 Zrotation Yrotation Xrotation
						End Site
						{
							OFFSET 0.000000 0.000000 0.000000
						}
					}
				}
				JOINT LeftShoulder
				{
					OFFSET 0.078845 0.121749 -0.034090
					CHANNELS 3 Zrotation Yrotation Xrotation
					JOINT LeftArm
					{
						OFFSET 0.090977 0.030469 -0.008868
						CHANNELS 3 Zrotation Yrotation Xrotation
						JOINT LeftForeArm
						{
							OFFSET 0.259612 -0.012772 -0.027456
							CHANNELS 3 Zrotation Yrotation Xrotation
							JOINT LeftHand
							{
								OFFSET 0.249234 0.008986 -0.001171
								CHANNELS 3 Zrotation Yrotation Xrotation
								End Site
								{
									OFFSET 0.000000 0.000000 0.000000
								}
							}
						}
					}
				}
				JOINT RightShoulder
				{
					OFFSET -0.081759 0.118833 -0.038615
					CHANNELS 3 Zrotation Yrotation Xrotation
					JOINT RightArm
					{
						OFFSET -0.096012 0.032551 -0.009143
						CHANNELS 3 Zrotation Yrotation Xrotation
						JOINT RightForeArm
						{
							OFFSET -0.253742 -0.013329 -0.021401
							CHANNELS 3 Zrotation Yrotation Xrotation
							JOINT RightHand
							{
								OFFSET -0.255298 0.007772 -0.005559
								CHANNELS 3 Zrotation Yrotation Xrotation
								End Site
								{
									OFFSET 0.000000 0.000000 0.000000
								}
							}
						}
					}
				}
			}
		}
	}
}
MOTION
Frames: 10
Frame Time: 0.050000
-0.070745 0.912125 0.014939 0.138906 -7.056844 6.847376 12.978956 0.511220 -18.781816 -8.899797 1.858793 12.356055 8.474259 17.545435 10.488368 0.000000 0.000000 0.000000 -14.191096 0.570250 -22.324056 10.821852 -1.592803 14.780001 -4.598948 -13.961312 9.541321 0.000000 0.000000 0.000000 4.753587 -2.553160 41.536571 -4.615648 1.558391 -25.271455 -6.090412 6.017441 22.782163 16.626530 -1.664763 -51.773473 0.000000 0.000000 0.000000 -10.430129 -34.479220 14.656774 -34.544458 -45.388577 7.152430 50.270492 -53.352925 -23.372870 0.000000 0.000000 0.000000 22.856136 18.976697 10.850864 48.515609 52.267330 15.902876 -32.749242 53.177977 -12.260528 0.000000 0.000000 0.000000 
-0.070961 0.911972 0.014348 0.153680 -7.306432 6.980307 12.963829 0.525984 -18.885999 -8.863620 1.858945 12.322376 8.601059 17.731893 10.577038 0.000000 0.000000 0.000000 -14.105611 0.604449 -22.589566 10.671150 -1.548883 14.821064 -4.521650 -13.829671 9.485046 0.000000 0.000000 0.000000 4.731598 -2.507317 41.622624 -4.705238 1.573901 -25.317224 -6.041017 6.095215 22.819344 16.607260 -1.732802 -51.413446 0.000000 0.000000 0.000000 -10.154635 -34.280050 14.502756 -35.262953 -45.642127 7.455003 50.876264 -53.733755 -23.859988 0.000000 0.000000 0.000000 22.719529 18.932136 10.792107 49.078756 52.302772 16.185201 -32.421206 54.507796 -12.447757 0.000000 0.000000 0.000000 
-0.070974 0.911603 0.013967 0.240638 -7.431766 7.165016 12.953599 0.540413 -19.170023 -8.989953 1.904407 12.445550 8.679741 17.850280 10.617266 0.000000 0.000000 0.000000 -14.217654 0.606105 -22.948289 10.687276 -1.552343 14.978507 -4.510188 -13.812925 9.427858 0.000000 0.000000 0.000000 4.791987 -2.514490 41.672900 -4.848570 1.603353 -25.317800 -6.124509 6.086738 22.804408 16.546359 -1.740518 -51.260160 0.000000 0.000000 0.000000 -9.982073 -34.129154 14.405113 -35.622396 -45.776661 7.616669 51.471995 -54.259074 -24.431548 0.000000 0.000000 0.000000 22.424835 19.042502 10.794009 49.573769 52.502655 16.538207 -31.817470 55.750118 -12.471291 0.000000 0.000000 0.000000 
-0.070885 0.911259 0.013747 0.359922 -7.434448 7.311440 12.859155 0.532789 -19.455944 -9.045639 1.929286 12.601340 8.702785 17.888421 10.615359 0.000000 0.000000 0.000000 -14.359449 0.592567 -23.228865 10.678528 -1.557529 15.141108 -4.543425 -13.869256 9.365310 0.000000 0.000000 0.000000 4.863896 -2.551651 41.865881 -4.968343 1.627451 -25.460561 -6.215236 6.046906 22.814927 16.572724 -1.785835 -51.059206 0.000000 0.000000 0.000000 -9.876275 -34.054454 14.354741 -35.936270 -45.849699 7.741815 52.578531 -54.765558 -25.300610 0.000000 0.000000 0.000000 22.300839 19.101613 10.806975 49.672311 52.408841 16.534190 -31.335521 57.339194 -12.636592 0.000000 0.000000 0.000000 
-0.070780 0.910860 0.013822 0.503829 -7.317323 7.340447 12.912117 0.545388 -19.733058 -9.405800 2.038346 12.932252 8.651374 17.815442 10.595803 0.000000 0.000000 0.000000 -14.544524 0.559422 -23.318866 10.702026 -1.575286 15.280518 -4.618694 -13.981931 9.248325 0.000000 0.000000 0.000000 4.944560 -2.614174 42.138878 -5.125126 1.664424 -25.386655 -6.316348 5.841184 22.618729 16.416228 -1.746640 -50.980901 0.000000 0.000000 0.000000 -10.066529 -33.821161 14.321781 -35.988086 -45.625419 7.706059 53.549839 -55.879769 -26.449103 0.000000 0.000000 0.000000 22.157407 19.170859 10.781666 49.514855 51.991710 16.262523 -30.647647 59.105012 -12.768912 0.000000 0.000000 0.000000 
-0.070740 0.910620 0.014240 0.646939 -7.183665 7.273643 12.795371 0.516504 -19.744038 -9.481210 2.057859 13.027643 8.594240 17.734895 10.511556 0.000000 0.000000 0.000000 -14.677862 0.528687 -23.208998 10.653479 -1.573928 15.310571 -4.686035 -14.069751 9.100324 0.000000 0.000000 0.000000 4.914032 -2.640064 42.596000 -5.193568 1.680402 -25.487937 -6.370956 5.765422 22.504513 16.200374 -1.725504 -50.709602 0.000000 0.000000 0.000000 -10.359050 -33.698410 14.337743 -35.580455 -45.244294 7.454329 54.226602 -56.710210 -27.335369 0.000000 0.000000 0.000000 22.174621 19.075214 10.733226 48.991758 51.318332 15.673478 -29.811502 60.541498 -12.690184 0.000000 0.000000 0.000000 
-0.070759 0.910259 0.014868 0.726370 -7.038039 7.233628 12.697016 0.480199 -19.534068 -9.475129 2.027105 12.735113 8.547888 17.673244 10.300569 0.000000 0.000000 0.000000 -14.629436 0.522043 -23.104114 10.411987 -1.531029 15.357679 -4.766266 -14.169507 8.869714 0.000000 0.000000 0.000000 4.875407 -2.657995 42.831340 -5.214375 1.688230 -25.350737 -6.346223 5.701528 22.364222 15.915436 -1.716020 -50.243923 0.000000 0.000000 0.000000 -11.038154 -33.546223 14.442281 -35.005022 -44.450844 7.027096 54.926742 -57.751863 -28.384069 0.000000 0.000000 0.000000 22.124190 19.019838 10.692439 48.566307 50.547425 15.099474 -29.069418 61.736812 -12.590911 0.000000 0.000000 0.000000 
-0.070836 0.910226 0.015443 0.819645 -6.851838 7.138718 12.554348 0.436782 -19.322793 -9.412573 1.986566 12.517294 8.464503 17.551469 10.187998 0.000000 0.000000 0.000000 -14.539277 0.516051 -22.944721 10.083836 -1.471167 15.428262 -4.842473 -14.273012 8.714453 0.000000 0.000000 0.000000 4.878785 -2.700186 43.094005 -5.276956 1.706158 -25.265899 -6.369363 5.798013 22.334547 15.882498 -1.729926 -50.020325 0.000000 0.000000 0.000000 -11.386503 -33.503712 14.472812 -34.454434 -43.778942 6.642660 55.507484 -58.589314 -29.298549 0.000000 0.000000 0.000000 21.895508 18.762695 10.556906 48.138579 49.876808 14.576913 -29.075719 62.275652 -12.717023 0.000000 0.000000 0.000000 
-0.070901 0.910075 0.015870 0.878089 -6.671605 7.147122 12.389748 0.398028 -19.367834 -9.235244 1.935863 12.550495 8.396274 17.453055 10.070029 0.000000 0.000000 0.000000 -14.579362 0.496160 -22.999683 10.036979 -1.477843 15.640269 -4.927434 -14.414347 8.655095 0.000000 0.000000 0.000000 4.804435 -2.703007 43.144523 -5.291840 1.711641 -25.243351 -6.392686 5.851702 22.378540 15.915150 -1.705311 -50.161559 0.000000 0.000000 0.000000 -11.770558 -33.504807 14.549284 -33.910857 -43.130995 6.275870 55.453269 -58.996452 -29.549280 0.000000 0.000000 0.000000 22.085179 18.473340 10.466276 47.595592 49.122359 13.946948 -29.095402 62.410216 -12.743201 0.000000 0.000000 0.000000 
-0.070985 0.910315 0.016185 0.970996 -6.290320 7.173212 12.280279 0.352962 -19.364494 -9.218607 1.899290 12.349593 8.218524 17.190693 10.065295 0.000000 0.000000 0.000000 -14.668968 0.455101 -22.813470 10.007826 -1.486876 15.467755 -5.070647 -14.668355 8.696144 0.000000 0.000000 0.000000 4.831357 -2.789092 43.311711 -5.347187 1.730812 -25.292098 -6.446561 5.801670 22.323218 15.739687 -1.570252 -50.493235 0.000000 0.000000 0.000000 -12.065082 -33.604584 14.651742 -33.007032 -42.809949 5.922503 54.786278 -59.269280 -29.340847 0.000000 0.000000 0.000000 21.944184 18.208855 10.324988 46.892969 48.488775 13.350368 -29.738748 61.973279 -13.017819 0.000000 0.000000 0.000000 
